<svg width="20" height="20" viewBox="0 0 20 20" fill="none" xmlns="http://www.w3.org/2000/svg">
<path d="M14.6953 0.0429688C13.5234 0.25 12.4141 1.08203 11.8711 2.15625C11.5586 2.78125 11.4414 3.28516 11.4414 4.00391C11.4414 5.01953 11.8008 5.94531 12.4766 6.66797L12.6875 6.89453L12.2149 7.11719C11.957 7.24219 11.5899 7.44141 11.3984 7.5625C11.207 7.68359 11.0469 7.77734 11.043 7.76953C11.0391 7.76172 10.9727 7.63281 10.8984 7.48047C10.4024 6.49609 9.45314 5.73828 8.33985 5.44531C8.00392 5.35547 7.8711 5.33984 7.38282 5.33984C6.53126 5.33984 5.91407 5.50391 5.26954 5.91016C4.10939 6.63281 3.43751 7.76953 3.37111 9.10938C3.31642 10.2109 3.68751 11.2422 4.40626 12L4.62111 12.2227L4.37111 12.332C2.66407 13.0625 1.32032 14.3125 0.52345 15.918C0.199231 16.5703 0.039075 17.0664 0.0117313 17.5C-0.054675 18.6172 0.656262 19.5977 1.76173 19.9102C1.99611 19.9766 2.25001 19.9805 5.68361 19.9805H9.35548L9.53907 19.875C10.0469 19.5742 10.0664 18.8477 9.57814 18.5117L9.43751 18.418L5.8047 18.3984C1.72657 18.375 2.05861 18.4023 1.78126 18.082C1.51954 17.7734 1.5547 17.4648 1.93751 16.6758C3.19532 14.0859 6.27345 12.7539 9.04298 13.5977C9.51173 13.7422 10.0274 13.9805 10.4531 14.2461C10.8359 14.4883 11.0234 14.5508 11.2617 14.5156C11.9219 14.4141 12.1524 13.5234 11.6211 13.0977C11.4102 12.9258 10.8438 12.5977 10.4492 12.418L10.0899 12.2539L10.3477 11.9531C10.832 11.3867 11.125 10.7891 11.2656 10.0625L11.3516 9.63672L11.5625 9.44531C12.082 8.98438 12.875 8.53125 13.5742 8.29688C14.2422 8.07422 14.8242 7.99609 15.5859 8.02344C16.3984 8.05078 16.8906 8.14844 17.5547 8.41797C17.9883 8.59375 18.0625 8.63281 18.5352 8.92188C18.918 9.15625 18.9297 9.16016 19.207 9.16016C19.4531 9.16016 19.5039 9.14844 19.6563 9.04297C20.0469 8.76953 20.1133 8.20703 19.793 7.85547C19.6484 7.69922 19.1484 7.38672 18.6406 7.14062L18.1602 6.90625L18.3164 6.73828C19.418 5.54297 19.7188 3.83594 19.0781 2.37891C18.5938 1.28125 17.6836 0.484375 16.5039 0.132812C16.1992 0.0429688 16.0703 0.0273438 15.5274 0.015625C15.1836 0.0117188 14.8086 0.0195312 14.6953 0.0429688ZM15.957 1.64844C16.25 1.70703 16.7539 1.96875 17.0039 2.19141C17.293 2.44922 17.5781 2.88281 17.6992 3.24609C17.8242 3.625 17.832 4.3125 17.7188 4.64844C17.3711 5.66797 16.5703 6.29688 15.5469 6.35547C14.8399 6.39453 14.2539 6.16797 13.7461 5.66406C13.2695 5.19141 13.0352 4.62109 13.0391 3.96484C13.0391 3.3125 13.2578 2.80078 13.7305 2.32031C14.3438 1.69531 15.0977 1.46875 15.957 1.64844ZM8.04689 7.02734C8.95314 7.3125 9.62892 8.12891 9.71876 9.05469C9.83595 10.1953 9.1836 11.2031 8.07814 11.5898C7.83985 11.6719 7.71876 11.6914 7.36329 11.6953C6.98048 11.6953 6.89845 11.6836 6.60157 11.5781C5.55079 11.207 4.90626 10.25 4.97267 9.16406C5.03517 8.11719 5.81251 7.20703 6.84376 6.97266C7.16798 6.89844 7.71485 6.92188 8.04689 7.02734Z" fill="#8C8C8C"/>
<path d="M15.3086 12.0763C15.2109 12.1232 15.0938 12.2286 15.0352 12.3185L14.9297 12.4747L14.918 13.7013L14.9062 14.924H13.7305C12.6094 14.924 12.543 14.9279 12.3789 15.006C12.2773 15.0568 12.168 15.1544 12.1055 15.2482C12.0156 15.3849 12 15.4474 12 15.7052C12 15.963 12.0156 16.0255 12.1055 16.1622C12.168 16.256 12.2773 16.3536 12.3789 16.4044C12.543 16.4825 12.6094 16.4865 13.7305 16.4865H14.9102V17.6661C14.9102 18.7872 14.9141 18.8536 14.9922 19.0177C15.043 19.1193 15.1406 19.2286 15.2344 19.2911C15.3711 19.381 15.4336 19.3966 15.6914 19.3966C15.9492 19.3966 16.0117 19.381 16.1484 19.2911C16.2422 19.2286 16.3398 19.1193 16.3906 19.0177C16.4688 18.8536 16.4727 18.7872 16.4727 17.6661V16.4865H17.6523C18.7734 16.4865 18.8398 16.4825 19.0039 16.4044C19.1055 16.3536 19.2148 16.256 19.2773 16.1622C19.3672 16.0255 19.3828 15.963 19.3828 15.7052C19.3828 15.4474 19.3672 15.3849 19.2773 15.2482C19.2148 15.1544 19.1055 15.0568 19.0039 15.006C18.8398 14.9279 18.7734 14.924 17.6523 14.924H16.4727V13.7443C16.4727 12.6232 16.4688 12.5568 16.3906 12.3927C16.2695 12.1427 16.0586 12.0177 15.7344 12.0021C15.5273 11.9943 15.4414 12.006 15.3086 12.0763Z" fill="#8C8C8C"/>
</svg>
