<svg width="20" height="20" viewBox="0 0 20 20" fill="none" xmlns="http://www.w3.org/2000/svg">
<path d="M9.10157 0.0585938C7.41406 0.355469 5.96484 1.44531 5.21094 2.98828C4.99219 3.44141 4.80078 4.05078 4.73047 4.51953C4.70703 4.67188 4.6875 5.04297 4.6875 5.33984C4.6875 6.19531 4.83984 6.86328 5.21484 7.63672C5.53125 8.29688 6.02344 8.92969 6.57813 9.39453L6.76563 9.55469L6.32422 9.72266C5.43359 10.0664 4.39844 10.6562 3.65234 11.2539C1.92187 12.6367 0.636717 14.6523 0.117185 16.7969C0.00390396 17.2734 -0.0078148 17.3672 0.00781021 17.7539C0.0234352 18.1172 0.0468727 18.2305 0.148435 18.4961C0.437498 19.2266 1.02344 19.7422 1.77734 19.9414C1.98047 19.9922 2.63281 20 7.10547 20H12.2031L12.375 19.918C12.4766 19.8672 12.5859 19.7695 12.6484 19.6758C12.7383 19.5391 12.7539 19.4766 12.7539 19.2188C12.7539 18.9609 12.7383 18.8984 12.6484 18.7617C12.5859 18.668 12.4766 18.5703 12.375 18.5195L12.2031 18.4375H7.33594C4.22656 18.4375 2.39453 18.4219 2.26172 18.3984C2.02344 18.3555 1.91406 18.2852 1.74219 18.0742C1.57812 17.8672 1.5625 17.6016 1.69531 17.0898C2.54687 13.75 5.44922 11.1758 8.8711 10.7266C9.58985 10.6328 9.98438 10.6172 10.5859 10.6641C11.6523 10.7461 12.5234 10.9648 13.5352 11.4023C14.0195 11.6133 14.4414 11.5391 14.6719 11.207C14.8281 10.9805 14.8516 10.625 14.7266 10.3672C14.6133 10.1367 14.4453 10.0273 13.7656 9.76172L13.2383 9.55078L13.4219 9.39453C13.9766 8.92969 14.4688 8.29688 14.7852 7.63672C15.1602 6.86328 15.3125 6.19531 15.3125 5.33984C15.3125 4.70703 15.2695 4.38672 15.1133 3.82812C14.7149 2.41406 13.6758 1.18359 12.3242 0.523438C11.8711 0.304688 11.2617 0.113281 10.793 0.0429688C10.418 -0.015625 9.46485 -0.00390625 9.10157 0.0585938ZM10.9766 1.71484C12.2539 2.08594 13.2266 3.0625 13.6016 4.35938C13.6797 4.62891 13.6914 4.75 13.6875 5.33203C13.6875 5.94141 13.6797 6.02344 13.5781 6.34766C13.1992 7.59375 12.2305 8.54297 10.9727 8.90625C10.5586 9.02734 9.73829 9.05859 9.29297 8.96484C7.92578 8.69141 6.83203 7.69141 6.42188 6.34766C6.32031 6.02344 6.3125 5.94141 6.3125 5.33203C6.3086 4.75 6.32031 4.62891 6.39844 4.35938C6.79688 2.97656 7.85938 1.97266 9.24219 1.66406C9.64063 1.57422 10.5859 1.60156 10.9766 1.71484Z" fill="#8C8C8C"/>
<path d="M15.9062 12.6602C15.8086 12.707 15.6914 12.8125 15.6328 12.9023L15.5273 13.0586L15.5156 14.2852L15.5039 15.5078H14.3281C13.207 15.5078 13.1406 15.5117 12.9766 15.5898C12.875 15.6406 12.7656 15.7383 12.7031 15.832C12.6133 15.9688 12.5977 16.0312 12.5977 16.2891C12.5977 16.5469 12.6133 16.6094 12.7031 16.7461C12.7656 16.8398 12.875 16.9375 12.9766 16.9883C13.1406 17.0664 13.207 17.0703 14.3281 17.0703H15.5078V18.25C15.5078 19.3711 15.5117 19.4375 15.5898 19.6016C15.6406 19.7031 15.7383 19.8125 15.832 19.875C15.9688 19.9648 16.0312 19.9805 16.2891 19.9805C16.5469 19.9805 16.6094 19.9648 16.7461 19.875C16.8398 19.8125 16.9375 19.7031 16.9883 19.6016C17.0664 19.4375 17.0703 19.3711 17.0703 18.25V17.0703H18.25C19.3711 17.0703 19.4375 17.0664 19.6016 16.9883C19.7031 16.9375 19.8125 16.8398 19.875 16.7461C19.9648 16.6094 19.9805 16.5469 19.9805 16.2891C19.9805 16.0312 19.9648 15.9688 19.875 15.832C19.8125 15.7383 19.7031 15.6406 19.6016 15.5898C19.4375 15.5117 19.3711 15.5078 18.25 15.5078H17.0703V14.3281C17.0703 13.207 17.0664 13.1406 16.9883 12.9766C16.8672 12.7266 16.6562 12.6016 16.332 12.5859C16.125 12.5781 16.0391 12.5898 15.9062 12.6602Z" fill="#8C8C8C"/>
</svg>
