<svg width="16" height="16" viewBox="0 0 16 16" fill="none" xmlns="http://www.w3.org/2000/svg">
<path fill-rule="evenodd" clip-rule="evenodd" d="M7.18667 12.6867C7.09292 12.7803 6.96584 12.8329 6.83334 12.8329C6.70084 12.8329 6.57376 12.7803 6.48001 12.6867L2.31334 8.52001C2.21971 8.42626 2.16711 8.29917 2.16711 8.16667C2.16711 8.03417 2.21971 7.90709 2.31334 7.81334L6.48001 3.64667C6.52578 3.59755 6.58098 3.55815 6.64232 3.53082C6.70365 3.50349 6.76986 3.4888 6.83699 3.48761C6.90413 3.48643 6.97081 3.49878 7.03307 3.52392C7.09533 3.54907 7.15189 3.5865 7.19937 3.63398C7.24685 3.68146 7.28428 3.73802 7.30942 3.80027C7.33457 3.86253 7.34692 3.92922 7.34574 3.99635C7.34455 4.06349 7.32986 4.1297 7.30253 4.19103C7.2752 4.25236 7.2358 4.30756 7.18667 4.35334L3.87334 7.66667H13.5C13.6326 7.66667 13.7598 7.71935 13.8536 7.81312C13.9473 7.90689 14 8.03406 14 8.16667C14 8.29928 13.9473 8.42646 13.8536 8.52023C13.7598 8.61399 13.6326 8.66667 13.5 8.66667H3.87334L7.18667 11.98C7.28031 12.0738 7.3329 12.2008 7.3329 12.3333C7.3329 12.4658 7.28031 12.5929 7.18667 12.6867Z" fill="black"/>
</svg>
