<svg width="30" height="30" viewBox="0 0 30 30" fill="none" xmlns="http://www.w3.org/2000/svg">
<path d="M0.943359 0.0996094C0.427734 0.28125 0 0.896484 0 1.46484C0 1.58203 0.0410156 1.81055 0.09375 1.96875C0.181641 2.23242 0.714844 2.7832 6.55664 8.63086L12.9199 15L6.58008 21.3457C3.09961 24.832 0.199219 27.7734 0.146484 27.8848C-0.117188 28.4121 0.00585938 29.1328 0.439453 29.5605C0.84375 29.9707 1.39453 30.0937 1.96875 29.9062C2.23242 29.8184 2.7832 29.2852 8.625 23.4434L15 17.0801L21.375 23.4434C27.2168 29.2852 27.7676 29.8184 28.0312 29.9062C28.6055 30.0937 29.1562 29.9707 29.5605 29.5605C29.9707 29.1562 30.0938 28.6055 29.9062 28.0312C29.8184 27.7676 29.2852 27.2168 23.4434 21.3691L17.0801 15L23.4434 8.625C29.2852 2.7832 29.8184 2.23242 29.9062 1.96875C30.0938 1.39453 29.9707 0.84375 29.5605 0.439453C29.1562 0.0292969 28.6055 -0.09375 28.0312 0.09375C27.7676 0.181641 27.2168 0.714844 21.3691 6.55664L15 12.9199L8.625 6.55664C2.7832 0.714844 2.23242 0.181641 1.96875 0.09375C1.61133 -0.0234375 1.2832 -0.0175781 0.943359 0.0996094Z" fill="black"/>
</svg>
