<svg width="20" height="20" viewBox="0 0 20 20" fill="none" xmlns="http://www.w3.org/2000/svg">
<path d="M12.8 4.4H14.8C15.0208 4.4 15.2 4.2208 15.2 4V1.3052C15.2 1.0956 15.0388 0.921199 14.83 0.906399C14.1936 0.861199 12.9504 0.799999 12.0564 0.799999C9.59999 0.799999 7.99999 2.272 7.99999 4.9472V7.6H5.19999C4.97919 7.6 4.79999 7.7792 4.79999 8V10.8C4.79999 11.0208 4.97919 11.2 5.19999 11.2H7.99999V18.8C7.99999 19.0208 8.17919 19.2 8.39999 19.2H11.2C11.4208 19.2 11.6 19.0208 11.6 18.8V11.2H14.4888C14.6928 11.2 14.864 11.0468 14.8864 10.844L15.1976 8.044C15.224 7.8072 15.0384 7.6 14.8 7.6H11.6V5.6C11.6 4.9372 12.1372 4.4 12.8 4.4Z" fill="white"/>
</svg>
