<svg width="20" height="20" viewBox="0 0 20 20" fill="none" xmlns="http://www.w3.org/2000/svg">
<path d="M5.9922 2.82812C5.12111 2.99609 4.4297 3.35156 3.83985 3.94922C2.63673 5.15234 2.29298 6.9375 2.96485 8.51172C3.19923 9.0625 3.72267 9.75391 4.13673 10.0586C4.30079 10.1797 4.33595 10.2344 4.25001 10.2344C4.22267 10.2344 4.00782 10.3281 3.76954 10.4453C1.8711 11.3633 0.476572 13.168 0.0586032 15.2344C-0.0234281 15.6328 -0.00389687 15.9414 0.117197 16.2695C0.242197 16.5898 0.628916 16.9805 0.957041 17.1133L1.19142 17.207H6.64064H12.0899L12.3242 17.1133C12.4922 17.0469 12.6289 16.9492 12.793 16.7812C13.1172 16.457 13.2774 16.0898 13.2813 15.6836C13.2813 15.5508 13.1524 14.9258 13.0625 14.6211L13.0391 14.5312L16.0195 14.5234L19.0039 14.5117L19.2188 14.4102C19.6446 14.2109 19.9492 13.7812 19.9883 13.3242C20.043 12.75 19.6016 11.5352 19.0781 10.7969C18.5469 10.043 17.8008 9.40625 17.0391 9.04688L16.7969 8.92969L17.0274 8.69141C18.0664 7.60938 18.2656 5.94141 17.5078 4.69531C17.0664 3.96484 16.4961 3.50391 15.7149 3.24219C15.2617 3.09375 14.6524 3.04297 14.1953 3.12109C12.582 3.40234 11.3945 4.91406 11.5 6.5625C11.5117 6.76562 11.5508 7.04688 11.586 7.1875C11.7227 7.72656 12.0899 8.375 12.4766 8.74609L12.6563 8.92188L12.3008 9.10938C12.1055 9.21094 11.8281 9.37891 11.6875 9.48047C11.3477 9.71875 10.7461 10.3008 10.5 10.6289L10.3086 10.8906L9.94923 10.6797C9.75392 10.5625 9.45314 10.4102 9.28908 10.3438C9.12111 10.2734 8.98439 10.2109 8.9883 10.1992C8.9883 10.1836 9.10548 10.082 9.24611 9.96484C9.6133 9.66016 9.96876 9.19141 10.2149 8.69141C10.7422 7.61719 10.7969 6.50781 10.375 5.39062C10.0117 4.41797 9.19923 3.54688 8.26173 3.125C7.61329 2.82812 6.64454 2.70312 5.9922 2.82812ZM7.15626 4C8.80079 4.31641 9.82814 6.01562 9.37111 7.66406C9.12501 8.54688 8.39454 9.33203 7.55079 9.62891C7.30079 9.71484 7.15626 9.73828 6.75783 9.75391C6.23048 9.77734 5.9922 9.73828 5.55079 9.55859C4.46486 9.12109 3.71095 7.875 3.80079 6.67969C3.93751 4.91406 5.48439 3.67969 7.15626 4ZM15.2149 4.31641C16.1016 4.54688 16.7266 5.3125 16.7852 6.25C16.8672 7.55859 15.7305 8.66406 14.4844 8.48438C13.75 8.37891 13.1602 7.9375 12.8555 7.26172C12.4844 6.44531 12.6524 5.51953 13.2813 4.87891C13.7969 4.35156 14.5274 4.14062 15.2149 4.31641ZM15.4336 9.74609C17.0469 10.0273 18.3633 11.2734 18.7578 12.8906C18.8281 13.1797 18.836 13.2461 18.793 13.2969C18.7461 13.3516 18.418 13.3594 15.6445 13.3594H12.5508L12.3555 13.0352C12.0899 12.6055 11.832 12.2656 11.5078 11.9258C11.3633 11.7695 11.25 11.6211 11.2617 11.5938C11.3086 11.4727 11.6641 11.043 11.9102 10.8086C12.8594 9.91406 14.1602 9.51953 15.4336 9.74609ZM7.75392 11.0703C9.90236 11.5547 11.5391 13.1797 12.0313 15.3242C12.1172 15.6875 12.1172 15.7188 12.0547 15.8438C12.0195 15.918 11.9492 15.9961 11.8906 16.0156C11.8281 16.0391 9.88673 16.0547 6.59767 16.0547H1.39845L1.28126 15.9336C1.16798 15.8242 1.16407 15.8047 1.18751 15.6094C1.2461 15.1055 1.56642 14.2461 1.91017 13.6641C2.73439 12.2773 4.09376 11.3438 5.72267 11.0391C6.13282 10.9609 7.35939 10.9805 7.75392 11.0703Z" fill="white"/>
</svg>
