<svg width="20" height="20" viewBox="0 0 20 20" fill="none" xmlns="http://www.w3.org/2000/svg">
<path d="M17.5292 4.38084C18.2875 5.29084 18.6658 6.3525 18.6658 7.56584C18.6658 11.9633 16.1642 13.2525 13.8133 13.6317C14.1167 14.1625 14.1925 14.7692 14.1925 15.3758V18.4842C14.1925 18.8633 13.965 19.0908 13.6617 19.0908C13.5817 19.092 13.5023 19.077 13.4282 19.0469C13.3541 19.0169 13.2867 18.9722 13.2302 18.9156C13.1736 18.8591 13.129 18.7918 13.0989 18.7177C13.0688 18.6435 13.0539 18.5641 13.055 18.4842V15.3758C13.0949 15.058 13.061 14.7353 12.9557 14.4328C12.8505 14.1302 12.6769 13.8561 12.4483 13.6317L12.8275 12.6458C15.1783 12.3425 17.605 11.5842 17.605 7.49C17.605 6.50417 17.2258 5.59417 16.5433 4.83584L16.3917 4.23C16.68 3.50338 16.7066 2.69904 16.4667 1.955C16.0883 2.03 15.33 2.1825 14.0417 3.0925L13.5858 3.1675C11.7948 2.71272 9.91852 2.71272 8.1275 3.1675L7.67166 3.0925C6.30833 2.25834 5.55 2.03084 5.17 2.03084C4.9425 2.78917 4.9425 3.6225 5.245 4.30584L5.09416 4.91167C4.33583 5.67 3.95666 6.65584 3.95666 7.56584C3.95666 11.5842 6.23166 12.4183 8.73333 12.7217L9.03666 13.7075C8.58166 14.1625 8.35416 14.7692 8.43 15.3758V18.56C8.43112 18.64 8.41619 18.7194 8.3861 18.7935C8.35601 18.8676 8.31137 18.9349 8.25481 18.9915C8.19825 19.048 8.13092 19.0927 8.05681 19.1228C7.9827 19.1529 7.90331 19.1678 7.82333 19.1667C7.74335 19.1678 7.66396 19.1529 7.58985 19.1228C7.51574 19.0927 7.44841 19.048 7.39185 18.9915C7.33529 18.9349 7.29065 18.8676 7.26056 18.7935C7.23047 18.7194 7.21554 18.64 7.21666 18.56V16.8167C4.715 17.3475 3.72916 16.0583 2.97083 15.0733C2.59166 14.6183 2.28833 14.2392 1.90916 14.1633C1.83416 14.0875 1.60583 13.7842 1.68166 13.4808C1.7575 13.1775 2.06083 12.95 2.365 13.1017C3.12333 13.2533 3.5775 13.86 4.03166 14.3908C4.715 15.3008 5.3975 16.1342 7.44416 15.68V15.3767C7.36916 14.77 7.52 14.1633 7.82333 13.6325C5.54833 13.1775 2.895 11.8883 2.895 7.56667C2.895 6.35334 3.27416 5.29167 4.0325 4.38167C3.805 3.32084 3.88083 2.18334 4.26 1.27334L4.63916 0.970002C4.79083 0.894168 5.8525 0.666668 8.05 2.03084C9.86695 1.5759 11.768 1.5759 13.585 2.03084C15.7092 0.590002 16.8467 0.816668 16.9983 0.893335L17.3775 1.19667C17.7567 2.25834 17.8325 3.32 17.5292 4.38084Z" fill="white"/>
</svg>
