<svg width="20" height="20" viewBox="0 0 20 20" fill="none" xmlns="http://www.w3.org/2000/svg">
<path d="M4.4922 1.7539C4.20704 1.84375 4.00392 1.97656 3.77735 2.22265C3.55079 2.46484 3.41798 2.73828 3.35939 3.08593C3.32814 3.26562 3.32032 4.88281 3.32814 8.49608L3.33985 13.6523L3.42579 13.8789C3.59376 14.3281 3.96876 14.7148 4.40235 14.8867L4.62892 14.9805L11.5234 14.9922C16.5625 15 18.4805 14.9922 18.6523 14.9609C19.2969 14.8359 19.8359 14.293 19.9609 13.6523C19.9922 13.4844 20 11.9765 19.9922 8.18358L19.9805 2.94921L19.8945 2.74218C19.7695 2.42968 19.5156 2.125 19.2461 1.94922C18.7969 1.66015 19.3945 1.67968 11.6641 1.68359C5.1211 1.68359 4.69532 1.6875 4.4922 1.7539ZM18.707 2.60156C18.9648 2.73046 19.125 2.96484 19.1602 3.25781C19.1719 3.36718 19.1797 5.14062 19.1719 7.20312L19.1602 10.9453L17.3125 8.79296C16.3008 7.60937 15.3945 6.58593 15.3047 6.52343C14.8906 6.22265 14.2852 6.22655 13.8516 6.53515C13.7656 6.59765 12.5703 8.01562 10.4024 10.6211C10.3945 10.6328 10.0859 10.3398 9.71485 9.96874C8.92579 9.18358 8.82813 9.12499 8.33985 9.12499C7.76954 9.12108 7.80079 9.10155 5.8711 11.0273L4.1797 12.7109V7.91796C4.1797 3.27343 4.1836 3.11718 4.25392 2.97656C4.29688 2.89843 4.37892 2.78515 4.44142 2.72656C4.69142 2.48828 4.1797 2.5039 11.6641 2.5H18.5L18.707 2.60156ZM14.8359 7.21874C14.8867 7.2539 15.8828 8.40233 17.0508 9.76561L19.1758 12.2461L19.1797 12.8047C19.1797 13.1133 19.1602 13.4453 19.1328 13.5469C19.0703 13.7969 18.7969 14.0703 18.5469 14.1328C18.3086 14.1953 5.01563 14.1992 4.80079 14.1406C4.72267 14.1172 4.60157 14.0625 4.53126 14.0117C4.25392 13.8242 4.14063 13.9648 6.23048 11.875C7.48829 10.6172 8.17579 9.95702 8.2422 9.94139C8.30079 9.92968 8.39845 9.93749 8.46095 9.96093C8.52345 9.98436 8.9336 10.3633 9.37501 10.8008C9.81641 11.2383 10.2266 11.6172 10.2891 11.6406C10.5508 11.7383 10.5391 11.75 12.5039 9.39452C13.7109 7.9453 14.375 7.17968 14.4453 7.15233C14.5742 7.10546 14.7149 7.1289 14.8359 7.21874Z" fill="#00AC4F"/>
<path d="M6.99219 4.25C6.70703 4.34375 6.50391 4.48047 6.27735 4.72266C5.67188 5.3711 5.69532 6.36328 6.33203 7.00391C7.29297 7.96485 8.90625 7.4375 9.14063 6.08985C9.23438 5.5586 9.03907 5.01563 8.61719 4.61719C8.28907 4.3125 8.03907 4.21094 7.5586 4.19141C7.29297 4.1836 7.15235 4.19532 6.99219 4.25ZM7.83203 5.07422C8.44922 5.35157 8.48438 6.23047 7.89063 6.5586C7.52735 6.76172 7.06641 6.64844 6.82032 6.29688C6.66407 6.07422 6.63282 5.71485 6.75 5.48438C6.96485 5.06641 7.42969 4.89063 7.83203 5.07422Z" fill="#00AC4F"/>
<path d="M1.86719 8.14453C1.80469 8.17969 1.73829 8.26953 1.70313 8.36719C1.55469 8.76172 0.0312534 14.5313 0.0117222 14.7656C-0.0429653 15.4219 0.355472 16.1055 0.949222 16.3789C1.0625 16.4297 2.15235 16.7422 3.37891 17.0703C4.60547 17.3945 7.53907 18.1836 9.90235 18.8164C12.2656 19.4492 14.3086 19.9805 14.4375 19.9883C15.0547 20.043 15.7383 19.6563 16.0156 19.1016C16.1406 18.8516 16.7969 16.4492 16.7969 16.2422C16.7969 16.0664 16.6484 15.875 16.4883 15.8398C16.3477 15.8086 16.1133 15.9023 16.0547 16.0156C16.0195 16.082 15.3125 18.6328 15.3125 18.6953C15.3125 18.707 15.2383 18.793 15.1524 18.8867C15.0313 19.0195 14.9375 19.0781 14.7774 19.125C14.5352 19.1953 14.5664 19.1992 13.5352 18.9219C13.1055 18.8086 10.1875 18.0273 7.05079 17.1875C0.886722 15.5391 1.13282 15.6172 0.949222 15.2969C0.769535 14.9727 0.750004 15.0781 1.66016 11.6875C2.1211 9.96484 2.5 8.50781 2.5 8.45313C2.5 8.39063 2.44922 8.30078 2.36719 8.21875C2.21875 8.07031 2.05079 8.04688 1.86719 8.14453Z" fill="#00AC4F"/>
</svg>
