<svg width="20" height="20" viewBox="0 0 20 20" fill="none" xmlns="http://www.w3.org/2000/svg">
<g clip-path="url(#clip0_18_145)">
<path d="M19.1299 8.70877C19.1187 8.70298 19.1074 8.6976 19.0958 8.69269L16.7233 7.66978C16.5868 7.61088 16.4326 7.60855 16.2944 7.66295L14.8707 8.22379L13.4469 7.66295C13.3144 7.6108 13.1672 7.6108 13.0346 7.66295L11.6107 8.22379L10.1871 7.66295C10.0546 7.6108 9.90726 7.6108 9.77483 7.66295L8.74083 8.07014C7.99902 6.4618 6.3951 5.41759 4.58241 5.41759C2.05571 5.41759 0 7.47322 0 10C0 12.5268 2.05571 14.5824 4.58241 14.5824C6.47136 14.5824 8.12719 13.4541 8.82521 11.7343H18.3989C19.2817 11.7343 20 11.016 20 10.1332C20 9.53005 19.6666 8.98416 19.1299 8.70877ZM18.399 10.6093H8.42831C8.18071 10.6093 7.96221 10.7712 7.89013 11.008C7.44429 12.4731 6.11504 13.4574 4.58241 13.4574C2.67601 13.4574 1.12505 11.9064 1.12505 10C1.12505 8.09361 2.67601 6.54264 4.58241 6.54264C6.10395 6.54264 7.43047 7.5175 7.88338 8.96849C7.92999 9.11764 8.03647 9.24075 8.17742 9.30826C8.31845 9.37584 8.48118 9.38163 8.62648 9.32433L9.98087 8.79089L11.4045 9.35173C11.537 9.40389 11.6844 9.40389 11.8169 9.35173L13.2407 8.79089L14.6645 9.35173C14.797 9.40389 14.9444 9.40381 15.0769 9.35173L16.4909 8.79475L18.6298 9.71697C18.7814 9.80095 18.875 9.9591 18.875 10.1333C18.875 10.3958 18.6614 10.6093 18.399 10.6093Z" fill="#8A8787"/>
<path d="M3.67947 8.53446C2.87136 8.53446 2.21393 9.19189 2.21393 10C2.21393 10.8081 2.87136 11.4655 3.67947 11.4655C4.48757 11.4655 5.145 10.8081 5.145 10C5.145 9.19189 4.48749 8.53446 3.67947 8.53446ZM3.67947 10.3405C3.49174 10.3405 3.33898 10.1877 3.33898 10C3.33898 9.81228 3.49174 9.65951 3.67947 9.65951C3.86719 9.65951 4.01995 9.81228 4.01995 10C4.01995 10.1877 3.86719 10.3405 3.67947 10.3405Z" fill="#8A8787"/>
</g>
<defs>
<clipPath id="clip0_18_145">
<rect width="20" height="20" fill="white"/>
</clipPath>
</defs>
</svg>
