<svg width="20" height="20" viewBox="0 0 20 20" fill="none" xmlns="http://www.w3.org/2000/svg">
<path d="M14.7655 0.0265595C14.462 0.100319 14.235 0.4192 14.024 0.630184L12.541 2.11321L6.96009 7.69408L5.51609 9.13808C5.19427 9.45989 4.88822 9.77789 5.04008 10.2699C5.14217 10.6006 5.47558 10.8538 5.71122 11.0894L7.19425 12.5725L12.6971 18.0753C13.1913 18.5695 13.6828 19.0668 14.1801 19.5581C14.4922 19.8665 14.8986 20.134 15.3507 19.9268C15.7378 19.7494 15.8885 19.2286 15.7021 18.8558C15.3874 18.2263 14.5971 17.6727 14.102 17.1776L8.95047 12.0261L7.54549 10.6211C7.39598 10.4716 7.0623 10.2455 7.00719 10.0357C6.95872 9.85118 7.31492 9.60281 7.42841 9.48932L8.95047 7.96727L14.9997 1.91808C15.2553 1.66241 15.6509 1.38181 15.7553 1.02045C15.9387 0.386009 15.3845 -0.123886 14.7655 0.0265595Z" fill="white"/>
</svg>
