<svg width="20" height="20" viewBox="0 0 20 20" fill="none" xmlns="http://www.w3.org/2000/svg">
<path d="M10.4687 4.67856C11.7607 4.67856 12.8081 3.63123 12.8081 2.33928C12.8081 1.04733 11.7607 0 10.4687 0C9.1767 0 8.12933 1.04733 8.12933 2.33928C8.12933 3.63123 9.1767 4.67856 10.4687 4.67856Z" fill="#AC9B9B"/>
<path d="M10.4687 20C11.2438 20 11.8722 19.3717 11.8722 18.5966C11.8722 17.8215 11.2438 17.1932 10.4687 17.1932C9.6936 17.1932 9.06525 17.8215 9.06525 18.5966C9.06525 19.3717 9.6936 20 10.4687 20Z" fill="#AC9B9B"/>
<path d="M4.72048 6.82505C5.88336 6.82505 6.82606 5.88238 6.82606 4.71955C6.82606 3.55671 5.88336 2.61404 4.72048 2.61404C3.5576 2.61404 2.6149 3.55671 2.6149 4.71955C2.6149 5.88238 3.5576 6.82505 4.72048 6.82505Z" fill="#AC9B9B"/>
<path d="M16.2169 17.3844C16.8629 17.3844 17.3866 16.8608 17.3866 16.2148C17.3866 15.5688 16.8629 15.0452 16.2169 15.0452C15.5709 15.0452 15.0472 15.5688 15.0472 16.2148C15.0472 16.8608 15.5709 17.3844 16.2169 17.3844Z" fill="#AC9B9B"/>
<path d="M2.33936 12.3393C3.37271 12.3393 4.2104 11.5016 4.2104 10.4683C4.2104 9.435 3.37271 8.59734 2.33936 8.59734C1.30602 8.59734 0.468323 9.435 0.468323 10.4683C0.468323 11.5016 1.30602 12.3393 2.33936 12.3393Z" fill="#AC9B9B"/>
<path d="M18.5973 11.4027C19.1137 11.4027 19.5324 10.984 19.5324 10.4676C19.5324 9.95111 19.1137 9.53245 18.5973 9.53245C18.0808 9.53245 17.6621 9.95111 17.6621 10.4676C17.6621 10.984 18.0808 11.4027 18.5973 11.4027Z" fill="#AC9B9B"/>
<path d="M3.56294 15.0588C2.92307 15.6987 2.92307 16.734 3.56294 17.3738C4.20206 18.0137 5.23891 18.0137 5.87802 17.3738C6.51789 16.734 6.51789 15.6987 5.87802 15.0588C5.23891 14.4182 4.20282 14.4121 3.56294 15.0588Z" fill="#AC9B9B"/>
<path d="M16.2162 5.42088C16.6035 5.42088 16.9175 5.10688 16.9175 4.71955C16.9175 4.33221 16.6035 4.01822 16.2162 4.01822C15.8288 4.01822 15.5148 4.33221 15.5148 4.71955C15.5148 5.10688 15.8288 5.42088 16.2162 5.42088Z" fill="#AC9B9B"/>
</svg>
