<svg width="20" height="20" viewBox="0 0 20 20" fill="none" xmlns="http://www.w3.org/2000/svg">
<g clip-path="url(#clip0_201_2)">
<path d="M9.66125 18.854H4.44478C3.02712 18.854 1.87687 17.6995 1.87687 16.2861V3.71392C1.87687 2.29626 3.03137 1.14601 4.44478 1.14601H9.74614C10.0645 1.14601 10.3191 0.891341 10.3191 0.573005C10.3191 0.254669 10.0645 0 9.74614 0H4.44478C2.39469 0 0.730858 1.66808 0.730858 3.71392V16.2861C0.730858 18.3362 2.39894 20 4.44478 20H9.66125C9.97958 20 10.2343 19.7453 10.2343 19.427C10.2343 19.1087 9.97534 18.854 9.66125 18.854Z" fill="white"/>
<path d="M19.101 9.59677L15.4592 5.955C15.2343 5.73005 14.8735 5.73005 14.6485 5.955C14.4236 6.17996 14.4236 6.54074 14.6485 6.7657L17.314 9.43123H5.68841C5.37007 9.43123 5.11541 9.6859 5.11541 10.0042C5.11541 10.3226 5.37007 10.5772 5.68841 10.5772H17.314L14.6485 13.2428C14.4236 13.4677 14.4236 13.8285 14.6485 14.0535C14.7589 14.1638 14.9074 14.2233 15.0517 14.2233C15.196 14.2233 15.3446 14.1681 15.455 14.0535L19.0967 10.4117C19.3259 10.1825 19.3259 9.81748 19.101 9.59677Z" fill="white"/>
</g>
<defs>
<clipPath id="clip0_201_2">
<rect width="20" height="20" fill="white"/>
</clipPath>
</defs>
</svg>
