<svg width="20" height="4" viewBox="0 0 20 4" fill="none" xmlns="http://www.w3.org/2000/svg">
<path d="M1.48828 0.0703111C0.644531 0.296874 0 1.1289 0 2C0 2.69141 0.441406 3.42969 1.05078 3.75391C1.83203 4.16797 2.77344 4.03125 3.39062 3.41406C3.79688 3.00781 3.98438 2.55859 3.98438 2C3.98438 1.4414 3.79688 0.992186 3.39062 0.585936C2.90234 0.0976548 2.14844 -0.109376 1.48828 0.0703111Z" fill="#9C9C9C"/>
<path d="M9.50389 0.0664039C8.80467 0.253904 8.24999 0.82031 8.06639 1.51953C7.79686 2.55859 8.45702 3.65625 9.51952 3.93359C10.5586 4.20312 11.6562 3.54297 11.9336 2.48047C12.2031 1.4414 11.5429 0.343748 10.4805 0.0664039C10.2031 -0.00781488 9.77342 -0.00390863 9.50389 0.0664039Z" fill="#9C9C9C"/>
<path d="M17.5195 0.0624964C16.8516 0.230465 16.2461 0.824215 16.0742 1.48046C15.8945 2.17578 16.0938 2.89843 16.6094 3.41406C17.5625 4.36718 19.1758 4.09765 19.7735 2.89062C20.0782 2.27734 20.0782 1.72265 19.7735 1.10937C19.3672 0.285153 18.4102 -0.16016 17.5195 0.0624964Z" fill="#9C9C9C"/>
</svg>
