<?xml version="1.0" standalone="yes"?>
<svg xmlns="http://www.w3.org/2000/svg" width="512" height="512">
<path style="fill:#ffffff; stroke:none;" d="M0 0L0 512L134 512L134 511C119.204 506.728 109.975 489.305 117.403 475C127.752 455.071 152.206 437.794 168 422L291 299L322 268C324.803 265.197 331.793 260.374 331.793 256C331.793 251.366 323.985 245.985 321 243L287 209L152 74C140.934 62.9343 124.44 51.1241 117.378 37C110.182 22.6082 119.05 5.31674 134 1C123.496 -3.40759 105.42 0 94 0L0 0z"/>
<path style="fill:#010101; stroke:none;" d="M134 0.529327C118.348 4.12219 110.468 22.6567 116.905 37C122.969 50.5108 138.676 61.6761 149 72L286 209L320 243C322.939 245.939 330.944 251.459 330.944 256C330.944 260.541 322.939 266.061 320 269L285 304L146 443C136.374 452.626 121.693 463.098 116.482 476C110.156 491.664 120.624 511.11 138 511.96C163.101 513.188 183.825 481.175 200 465L348 317C364.703 300.297 400.12 277.469 396.815 251C394.729 234.298 372.184 219.184 361 208L260 107L177 24C164.935 11.9349 153.206 -3.87952 134 0.529327z"/>
<path style="fill:#ffffff; stroke:none;" d="M148 0L148 1C157.611 3.82825 164.144 12.1444 171 19L207 55L344 192L381 229C388.919 236.919 396.992 244.01 396.992 256C396.992 267.99 388.919 275.081 381 283L344 320L207 457L171 493C164.093 499.907 157.698 508.2 148 511L148 512L512 512L512 0L148 0z"/>
</svg>
