<svg width="77" height="16" viewBox="0 0 77 16" fill="none" xmlns="http://www.w3.org/2000/svg">
<path d="M37.9482 7.75V8.29688C37.9482 9.04883 37.8503 9.72331 37.6543 10.3203C37.4583 10.9173 37.1781 11.4255 36.8135 11.8447C36.4535 12.264 36.0205 12.5853 35.5146 12.8086C35.0088 13.0273 34.4482 13.1367 33.833 13.1367C33.2223 13.1367 32.6641 13.0273 32.1582 12.8086C31.6569 12.5853 31.2217 12.264 30.8525 11.8447C30.4834 11.4255 30.1963 10.9173 29.9912 10.3203C29.7907 9.72331 29.6904 9.04883 29.6904 8.29688V7.75C29.6904 6.99805 29.7907 6.32585 29.9912 5.7334C30.1917 5.13639 30.4743 4.62826 30.8389 4.20898C31.208 3.78516 31.6432 3.46387 32.1445 3.24512C32.6504 3.02181 33.2087 2.91016 33.8193 2.91016C34.4346 2.91016 34.9951 3.02181 35.501 3.24512C36.0068 3.46387 36.4421 3.78516 36.8066 4.20898C37.1712 4.62826 37.4515 5.13639 37.6475 5.7334C37.848 6.32585 37.9482 6.99805 37.9482 7.75ZM36.2324 8.29688V7.73633C36.2324 7.18034 36.1777 6.69043 36.0684 6.2666C35.9635 5.83822 35.8063 5.48047 35.5967 5.19336C35.3916 4.90169 35.1387 4.68294 34.8379 4.53711C34.5371 4.38672 34.1976 4.31152 33.8193 4.31152C33.4411 4.31152 33.1038 4.38672 32.8076 4.53711C32.5114 4.68294 32.2585 4.90169 32.0488 5.19336C31.8438 5.48047 31.6865 5.83822 31.5771 6.2666C31.4678 6.69043 31.4131 7.18034 31.4131 7.73633V8.29688C31.4131 8.85286 31.4678 9.34505 31.5771 9.77344C31.6865 10.2018 31.846 10.5641 32.0557 10.8604C32.2699 11.152 32.5251 11.373 32.8213 11.5234C33.1175 11.6693 33.4548 11.7422 33.833 11.7422C34.2158 11.7422 34.5553 11.6693 34.8516 11.5234C35.1478 11.373 35.3984 11.152 35.6035 10.8604C35.8086 10.5641 35.9635 10.2018 36.0684 9.77344C36.1777 9.34505 36.2324 8.85286 36.2324 8.29688ZM39.6641 3.04688H43.1846C43.9411 3.04688 44.5859 3.16081 45.1191 3.38867C45.6523 3.61654 46.0602 3.95378 46.3428 4.40039C46.6299 4.84245 46.7734 5.38932 46.7734 6.04102C46.7734 6.53776 46.6823 6.97526 46.5 7.35352C46.3177 7.73177 46.0602 8.05078 45.7275 8.31055C45.3949 8.56576 44.9984 8.764 44.5381 8.90527L44.0186 9.1582H40.8535L40.8398 7.79785H43.2119C43.6221 7.79785 43.9639 7.72493 44.2373 7.5791C44.5107 7.43327 44.7158 7.23503 44.8525 6.98438C44.9938 6.72917 45.0645 6.44206 45.0645 6.12305C45.0645 5.77669 44.9961 5.47591 44.8594 5.2207C44.7272 4.96094 44.5221 4.7627 44.2441 4.62598C43.9661 4.4847 43.613 4.41406 43.1846 4.41406H41.3799V13H39.6641V3.04688ZM45.3447 13L43.0068 8.5293L44.8047 8.52246L47.1768 12.9111V13H45.3447Z" fill="#9C9C9C"/>
<path d="M0 7.5H20M57 7.5H77" stroke="#9C9C9C"/>
</svg>
