<svg width="20" height="20" viewBox="0 0 20 20" fill="none" xmlns="http://www.w3.org/2000/svg">
<path d="M5.53666 0.034178C5.0892 0.16351 4.89179 0.690866 5.06636 1.10251C5.32992 1.72386 6.1194 2.27094 6.59086 2.74239C8.39348 4.54501 10.215 6.32748 12.0181 8.13056L13.3846 9.49713C13.4994 9.61188 13.812 9.82741 13.812 10.0047C13.812 10.1915 13.4672 10.4298 13.3456 10.5513L11.979 11.9179C10.1498 13.7471 8.30262 15.5553 6.47373 17.3842C6.03241 17.8255 5.27162 18.3495 5.0509 18.946C4.86056 19.4604 5.2268 19.9952 5.77093 20C6.21697 20.0039 6.45101 19.7105 6.74704 19.4145L8.03552 18.126C9.95539 16.2061 11.8939 14.3067 13.8141 12.3864L15.3369 10.8637C15.5912 10.6093 15.8806 10.321 15.8321 9.92662C15.7531 9.28269 14.9085 8.71733 14.4779 8.28674L10.6515 4.46036C9.4874 3.29623 8.30243 2.15031 7.13749 0.985381C6.71417 0.562077 6.22997 -0.166224 5.53666 0.034178Z" fill="white"/>
</svg>
