<svg width="21" height="20" viewBox="0 0 21 20" fill="none" xmlns="http://www.w3.org/2000/svg">
<path d="M9.16306 2C5.48906 2 2.4964 4.99266 2.4964 8.66667C2.4964 12.3407 5.48906 15.3333 9.16306 15.3333C10.7607 15.3333 12.228 14.766 13.3779 13.8242L17.3584 17.8047C17.4198 17.8687 17.4934 17.9198 17.5748 17.9549C17.6562 17.9901 17.7438 18.0087 17.8325 18.0096C17.9212 18.0105 18.0092 17.9937 18.0913 17.9602C18.1735 17.9267 18.2481 17.8771 18.3108 17.8144C18.3735 17.7517 18.4231 17.6771 18.4566 17.5949C18.4901 17.5128 18.5069 17.4248 18.506 17.3361C18.5051 17.2474 18.4865 17.1598 18.4513 17.0784C18.4161 16.997 18.3651 16.9234 18.3011 16.862L14.3206 12.8815C15.2624 11.7316 15.8297 10.2643 15.8297 8.66667C15.8297 4.99266 12.8371 2 9.16306 2ZM9.16306 3.33333C12.1165 3.33333 14.4964 5.71325 14.4964 8.66667C14.4964 11.6201 12.1165 14 9.16306 14C6.20965 14 3.82973 11.6201 3.82973 8.66667C3.82973 5.71325 6.20965 3.33333 9.16306 3.33333Z" fill="#8C8C8C"/>
</svg>
