<svg width="20" height="20" viewBox="0 0 20 20" fill="none" xmlns="http://www.w3.org/2000/svg">
<path d="M0.652344 0.0546856C0.574219 0.0859356 0.484375 0.128904 0.453125 0.152342C0.351562 0.238279 0.273438 0.460936 0.273438 0.660154C0.273438 0.824217 1.91797 8.30078 1.96094 8.33984C1.97266 8.35156 9.94141 9.73437 10.9102 9.89453C11.1836 9.9414 11.4062 9.98828 11.4062 10C11.4062 10.0117 11.1836 10.0586 10.9102 10.1055C9.9375 10.2656 1.97266 11.6484 1.96094 11.6602C1.91797 11.6992 0.273438 19.1758 0.273438 19.3398C0.273438 19.8008 0.617188 20.0781 1.05078 19.9609C1.25 19.9062 19.4023 10.6055 19.5234 10.4922C19.668 10.3633 19.7266 10.2187 19.7266 10C19.7266 9.78125 19.668 9.63672 19.5234 9.50781C19.4102 9.40234 1.26172 0.0937481 1.0625 0.0390606C0.878906 -0.0117207 0.835938 -0.00781441 0.652344 0.0546856Z" fill="#00AC4F"/>
</svg>
