<svg width="20" height="20" viewBox="0 0 20 20" fill="none" xmlns="http://www.w3.org/2000/svg">
<path d="M8.91016 0.0625C8.59766 0.144531 8.32812 0.304688 8.08203 0.546875C7.71094 0.910156 7.53906 1.35156 7.53906 1.91406V2.25391L7.19922 2.38281C7.00781 2.45312 6.72656 2.57031 6.56641 2.64453L6.27344 2.77734L6.05859 2.5625C5.51172 2.03125 4.86719 1.83984 4.19922 2.01172C3.80078 2.11719 3.57422 2.28125 2.92578 2.92578C2.28125 3.57422 2.11719 3.80078 2.01172 4.19922C1.83984 4.86719 2.03125 5.51172 2.5625 6.05469L2.77344 6.27344L2.60156 6.66016C2.50781 6.875 2.39062 7.16016 2.34375 7.29297L2.25391 7.53906H1.91406C1.35156 7.53906 0.914062 7.71094 0.542969 8.08203C0.0898438 8.53906 0 8.85156 0 10C0 11.1523 0.0859375 11.4492 0.546875 11.918C0.910156 12.2891 1.35156 12.4609 1.91406 12.4609H2.25391L2.38281 12.8008C2.45312 12.9922 2.57031 13.2734 2.64453 13.4336L2.77734 13.7266L2.5625 13.9414C2.44531 14.0625 2.29688 14.2461 2.23047 14.3555C1.87891 14.918 1.86328 15.6602 2.19531 16.2461C2.35938 16.5391 3.46094 17.6406 3.75391 17.8047C4.30859 18.1172 5 18.125 5.5625 17.8203C5.67188 17.7617 5.875 17.6055 6.01953 17.4727L6.27734 17.2266L6.66406 17.3945C6.87891 17.4883 7.16016 17.6055 7.29688 17.6562L7.53906 17.7422V18.082C7.53906 18.6484 7.71094 19.0898 8.08203 19.4531C8.55078 19.9141 8.84766 20 10 20C11.1484 20 11.4609 19.9102 11.918 19.457C12.2891 19.0859 12.4609 18.6484 12.4609 18.082V17.7422L12.707 17.6562C12.8398 17.6055 13.1211 17.4883 13.3359 17.3945L13.7227 17.2266L13.9805 17.4727C14.125 17.6055 14.3281 17.7617 14.4375 17.8203C14.9883 18.1172 15.6719 18.1172 16.2266 17.8203C16.4883 17.6797 17.6328 16.5391 17.8008 16.25C18.1172 15.707 18.125 15.0039 17.8203 14.4375C17.7617 14.3281 17.6055 14.125 17.4727 13.9805L17.2266 13.7227L17.3945 13.3359C17.4883 13.1211 17.6055 12.8398 17.6562 12.7031L17.7422 12.4609H18.082C18.6602 12.4609 19.082 12.293 19.4531 11.918C19.9141 11.4492 20 11.1523 20 10C20 8.84766 19.9141 8.55078 19.4531 8.08203C19.082 7.70703 18.6602 7.53906 18.082 7.53906H17.7422L17.6562 7.29297C17.6055 7.16016 17.4883 6.87891 17.3945 6.66406L17.2266 6.27734L17.4727 6.01953C17.6055 5.875 17.7617 5.67188 17.8203 5.5625C18.125 5 18.1172 4.30859 17.8047 3.75391C17.6406 3.46484 16.5 2.32422 16.2266 2.17969C15.6406 1.86328 14.9062 1.88281 14.3555 2.23047C14.25 2.29688 14.0625 2.44531 13.9414 2.5625L13.7266 2.77734L13.4336 2.64453C13.2734 2.57031 12.9922 2.45312 12.8047 2.38281L12.4609 2.25391V1.91406C12.4609 1.35156 12.2891 0.914062 11.918 0.542969C11.6719 0.296875 11.4062 0.148438 11.0664 0.0585938C10.7578 -0.0234375 9.21484 -0.0195312 8.91016 0.0625ZM10.9258 1.25391C11.0391 1.30859 11.1289 1.39062 11.1914 1.5C11.2812 1.65625 11.2891 1.70312 11.2891 2.21875C11.2891 2.83594 11.3359 3.03516 11.5195 3.15625C11.5742 3.19531 11.8516 3.30078 12.1289 3.39453C12.4102 3.48438 12.8828 3.68359 13.1836 3.83203C13.4844 3.98047 13.7695 4.10156 13.8203 4.10156C14.0078 4.10156 14.207 3.96875 14.5859 3.59375C14.9922 3.19531 15.1055 3.125 15.332 3.125C15.5664 3.125 15.6758 3.19922 16.2266 3.74219C16.7773 4.28906 16.875 4.42578 16.875 4.66406C16.875 4.89453 16.8047 5.00781 16.4062 5.41406C16.0273 5.79688 15.8984 5.99219 15.8984 6.18359C15.8984 6.23438 16.0195 6.52344 16.1719 6.82422C16.3203 7.12891 16.5156 7.60156 16.6055 7.875C16.6992 8.15234 16.8047 8.42578 16.8438 8.48047C16.9648 8.66406 17.1641 8.71094 17.7812 8.71094C18.2969 8.71094 18.3438 8.71875 18.5 8.80859C18.793 8.98047 18.8281 9.11328 18.8281 10C18.8281 10.8867 18.793 11.0195 18.5 11.1914C18.3438 11.2812 18.2969 11.2891 17.7812 11.2891C17.1641 11.2891 16.9648 11.3359 16.8438 11.5195C16.8047 11.5742 16.6992 11.8477 16.6055 12.125C16.5156 12.3984 16.3203 12.8711 16.1719 13.1758C16.0195 13.4766 15.8984 13.7656 15.8984 13.8164C15.8984 14.0078 16.0273 14.2031 16.4062 14.5859C16.8047 14.9922 16.875 15.1055 16.875 15.332C16.875 15.5664 16.8008 15.6719 16.2617 16.2188C15.707 16.7773 15.5703 16.875 15.3398 16.875C15.1055 16.875 14.9961 16.8047 14.5859 16.4062C14.2031 16.0273 14.0078 15.8984 13.8125 15.8984C13.7617 15.8984 13.4727 16.0195 13.1758 16.168C12.8789 16.3164 12.4102 16.5156 12.1289 16.6055C11.8516 16.6992 11.5742 16.8047 11.5195 16.8438C11.3359 16.9648 11.2891 17.1641 11.2891 17.7812C11.2891 18.2969 11.2812 18.3438 11.1914 18.5C11.0195 18.793 10.8867 18.8281 10 18.8281C9.11328 18.8281 8.98047 18.793 8.80859 18.5C8.71875 18.3438 8.71094 18.2969 8.71094 17.7812C8.71094 17.1641 8.66406 16.9648 8.48047 16.8438C8.42578 16.8047 8.15234 16.6953 7.87109 16.6055C7.59375 16.5117 7.11719 16.3164 6.82031 16.168C6.51953 16.0195 6.23438 15.8984 6.18359 15.8984C5.99219 15.8984 5.79688 16.0273 5.41406 16.4062C5.00781 16.8047 4.89453 16.875 4.66406 16.875C4.42578 16.875 4.28906 16.7773 3.74219 16.2266C3.19922 15.6758 3.125 15.5664 3.125 15.332C3.125 15.1055 3.19531 14.9922 3.59375 14.5859C3.97266 14.2031 4.10156 14.0078 4.10156 13.8164C4.10156 13.7656 3.98047 13.4766 3.82812 13.1758C3.67969 12.8711 3.48438 12.3984 3.39453 12.125C3.30078 11.8477 3.19531 11.5742 3.15625 11.5195C3.03516 11.3359 2.83594 11.2891 2.21875 11.2891C1.70312 11.2891 1.65625 11.2812 1.5 11.1914C1.20703 11.0195 1.17188 10.8867 1.17188 10C1.17188 9.11328 1.20703 8.98047 1.5 8.80859C1.65625 8.71875 1.70312 8.71094 2.21875 8.71094C2.83594 8.71094 3.03516 8.66406 3.15625 8.48047C3.19531 8.42578 3.30469 8.14844 3.39453 7.87109C3.48438 7.58984 3.68359 7.11719 3.83203 6.82031C3.98047 6.51953 4.10156 6.23438 4.10156 6.18359C4.10156 5.99219 3.97266 5.79688 3.59375 5.41406C3.19531 5.00781 3.125 4.89453 3.125 4.66406C3.125 4.42578 3.22266 4.28906 3.77344 3.74219C4.32422 3.19922 4.43359 3.125 4.66797 3.125C4.89453 3.125 5.00781 3.19531 5.41406 3.59375C5.79688 3.97266 5.99219 4.10156 6.18359 4.10156C6.23438 4.10156 6.52344 3.98047 6.82422 3.82812C7.12891 3.67969 7.60156 3.48438 7.875 3.39453C8.15234 3.30078 8.42578 3.19531 8.48047 3.15625C8.66406 3.03516 8.71094 2.83594 8.71094 2.21875C8.71094 1.70312 8.71875 1.65625 8.80859 1.50391C8.87109 1.39453 8.96094 1.30859 9.07031 1.25391C9.22266 1.17969 9.30469 1.17188 9.99609 1.17188C10.6875 1.17188 10.7734 1.17969 10.9258 1.25391Z" fill="#666666"/>
<path d="M9.12109 5.74219C7.49609 6.09375 6.22266 7.29688 5.78906 8.89844C5.69531 9.24219 5.6875 9.34375 5.6875 10C5.6875 10.6562 5.69531 10.7578 5.78906 11.1016C6.19922 12.6133 7.38672 13.8008 8.89843 14.2109C9.24218 14.3047 9.34374 14.3125 9.99999 14.3125C10.6562 14.3125 10.7578 14.3047 11.1016 14.2109C12.6133 13.8008 13.8008 12.6133 14.2109 11.1016C14.3047 10.7578 14.3125 10.6562 14.3125 10C14.3125 9.34375 14.3047 9.24219 14.2109 8.89844C13.8008 7.38672 12.6055 6.1875 11.1133 5.79688C10.5703 5.65234 9.64453 5.62891 9.12109 5.74219ZM10.7305 6.91406C12.1758 7.26172 13.1641 8.51172 13.1641 10C13.1641 11.7734 11.7734 13.1641 9.99999 13.1641C9.125 13.1641 8.3789 12.8555 7.75781 12.2422C6.69922 11.1914 6.52344 9.51562 7.34375 8.26953C7.79297 7.58203 8.53125 7.06641 9.31249 6.89453C9.68359 6.81641 10.3516 6.82422 10.7305 6.91406Z" fill="#666666"/>
</svg>
