<svg width="20" height="20" viewBox="0 0 20 20" fill="none" xmlns="http://www.w3.org/2000/svg">
<path d="M9.2578 0.0273399C7.77733 0.167965 6.67577 0.480465 5.42968 1.11328C3.95312 1.86718 2.6289 3.05468 1.66015 4.49218C1.49609 4.73828 1.21484 5.23828 1.03515 5.60546C0.378899 6.93359 0.0663988 8.1875 0.0117114 9.66796C-0.0468823 11.332 0.296867 12.918 1.03905 14.4102C1.55859 15.4609 2.09765 16.2031 2.9453 17.0547C3.80858 17.9141 4.55468 18.4492 5.60546 18.9648C6.33983 19.3242 6.81249 19.5 7.55858 19.6875C9.51171 20.1797 11.4726 20.0859 13.3789 19.4102C13.9648 19.2031 14.9726 18.6953 15.4883 18.3516C16.668 17.5625 17.7265 16.4766 18.4922 15.2734C18.7734 14.832 19.2265 13.8945 19.4101 13.375C20.3281 10.7891 20.1679 8.01562 18.9609 5.58984C18.4765 4.61328 17.9336 3.84375 17.1719 3.05859C16.3359 2.1914 15.4922 1.57812 14.3945 1.03515C13.2383 0.46484 12.1601 0.156246 10.8789 0.0390587C10.4805 0.00390244 9.57811 -0.00391006 9.2578 0.0273399ZM11.3867 1.36328C13.8398 1.77734 15.9101 3.11328 17.289 5.17968C17.9883 6.22265 18.4453 7.41796 18.6601 8.73046C18.7539 9.32812 18.7539 10.6719 18.6601 11.2695C18.2383 13.8789 16.8086 16.043 14.5898 17.4414C13.6406 18.0391 12.4922 18.4609 11.2695 18.6602C10.668 18.7539 9.32811 18.7539 8.73046 18.6562C6.16405 18.2383 4.05077 16.875 2.64843 14.7266C1.99218 13.7227 1.55077 12.5508 1.33984 11.2695C1.24609 10.6719 1.24609 9.32812 1.33984 8.73046C1.65624 6.78906 2.47655 5.16796 3.82421 3.82812C5.3164 2.33984 7.19139 1.46484 9.29686 1.27343C9.71874 1.23437 10.9297 1.28906 11.3867 1.36328Z" fill="#00AC4F"/>
<path d="M5.47656 6.35936C5.10938 6.49218 4.78125 6.83983 4.68359 7.19921C4.60938 7.46874 4.65625 7.8828 4.78906 8.12108C5.01953 8.54686 5.38672 8.76561 5.87891 8.76561C6.27344 8.76952 6.52344 8.66405 6.77734 8.39452C7.03125 8.12108 7.12109 7.89843 7.125 7.53905C7.125 7.18358 7.03906 6.96483 6.79297 6.69921C6.45313 6.33202 5.93359 6.19921 5.47656 6.35936Z" fill="#00AC4F"/>
<path d="M13.7891 6.32422C13.4375 6.4414 13.1094 6.72656 12.9609 7.05078C12.8437 7.3164 12.8437 7.7539 12.9609 8.01562C13.0742 8.27343 13.3594 8.5664 13.6055 8.67578C13.9101 8.8125 14.3555 8.80859 14.6562 8.66015C14.9336 8.52343 15.1641 8.26562 15.2773 7.97265C15.3828 7.6875 15.3672 7.25 15.2383 7C15.0156 6.57031 14.6406 6.32422 14.168 6.30468C14.0117 6.29687 13.8437 6.30468 13.7891 6.32422Z" fill="#00AC4F"/>
<path d="M5.01953 12.1641C4.76172 12.2773 4.60938 12.5781 4.66407 12.8672C4.71875 13.1563 5.41406 14.0703 5.91797 14.5156C6.51563 15.043 7.33594 15.5234 8.04687 15.7578C8.72265 15.9805 9.09375 16.0312 10 16.0312C10.7227 16.0312 10.8945 16.0195 11.2344 15.9453C11.832 15.8164 12.1953 15.6875 12.7539 15.4102C13.75 14.9141 14.5547 14.1875 15.1484 13.2422C15.3125 12.9805 15.332 12.9258 15.332 12.7266C15.332 12.3555 15.1055 12.1289 14.7266 12.1289C14.4336 12.1289 14.3398 12.1953 14.0781 12.5938C13.1289 14.0273 11.6992 14.8047 10 14.8047C9.19531 14.8047 8.51562 14.6484 7.83984 14.3125C7.04687 13.9141 6.47266 13.4102 5.96484 12.6523C5.83203 12.4531 5.67578 12.2578 5.61719 12.2148C5.48828 12.1172 5.17578 12.0898 5.01953 12.1641Z" fill="#00AC4F"/>
</svg>
