<svg width="20" height="20" viewBox="0 0 20 20" fill="none" xmlns="http://www.w3.org/2000/svg">
<path d="M3.57813 0.0586052C3.26172 0.140636 2.9375 0.320324 2.60547 0.60548C2.23828 0.921886 0.921879 2.26173 0.707036 2.53907C-0.164058 3.65236 -0.179683 5.38282 0.664067 7.6172C1.69141 10.3477 3.61719 13.1133 6.05469 15.3594C9.41406 18.457 13.9141 20.4609 16.2305 19.8984C16.5742 19.8164 17.1445 19.5508 17.4062 19.3516C17.6719 19.1524 19.4375 17.3399 19.6016 17.1016C19.9062 16.6602 20.0234 16.0703 19.9062 15.5703C19.7734 15.0117 19.7305 14.9609 18.0312 13.2578C16.3164 11.543 16.2617 11.5 15.6953 11.3828C15.2461 11.2891 14.7891 11.3711 14.3477 11.625C14.2461 11.6875 13.7617 12.1289 13.2734 12.6133L12.3867 13.4883L12.1016 13.3399C11.4023 12.9766 10.8867 12.6289 10.1172 11.9961C9.32813 11.3477 8.22656 10.2109 7.61719 9.41407C7.17578 8.83595 6.52735 7.76954 6.52344 7.62501C6.52344 7.59767 6.82813 7.27736 7.19922 6.91407C7.98047 6.15236 8.28906 5.79689 8.46485 5.46095C8.6836 5.03517 8.72656 4.49611 8.57422 4.05079C8.42188 3.59767 8.27344 3.42579 6.78125 1.9297C5.30469 0.453136 5.07813 0.257824 4.65625 0.113293C4.36328 0.00782394 3.87891 -0.0156136 3.57813 0.0586052ZM4.48438 1.15626C4.59375 1.21876 5.21875 1.80861 6.0586 2.65236C7.57813 4.17579 7.63672 4.24611 7.63281 4.64845C7.63281 5.00392 7.53906 5.12892 6.51953 6.14845C6.00391 6.66017 5.55469 7.13282 5.52344 7.19923C5.47657 7.28126 5.46485 7.39454 5.47657 7.58595C5.48828 7.82032 5.51953 7.91017 5.75782 8.38282C6.29688 9.45314 7.00781 10.3945 8.1836 11.5977C9.35156 12.793 10.5156 13.6836 11.7148 14.3008C12.1406 14.5195 12.2227 14.5508 12.418 14.5469C12.5508 14.5469 12.6914 14.5195 12.7734 14.4766C12.8477 14.4375 13.332 13.9844 13.8477 13.4727C14.5117 12.8125 14.8359 12.5195 14.9609 12.4649C15.1953 12.3594 15.5 12.3594 15.7148 12.4649C15.9492 12.582 18.7109 15.3399 18.832 15.582C18.8984 15.7109 18.9258 15.8281 18.9258 15.9961C18.9258 16.3984 18.8437 16.5078 17.7344 17.6211C16.6367 18.7227 16.5352 18.7969 15.9492 18.9297C15.3828 19.0547 14.4336 18.9531 13.4727 18.668C12.0078 18.2344 10.0391 17.1953 8.41797 16C5.29688 13.7031 2.61719 10.1914 1.50391 6.94532C0.97266 5.40236 0.914067 4.29689 1.32032 3.47657C1.44532 3.21486 1.5625 3.08204 2.375 2.25782C2.875 1.75001 3.35547 1.28907 3.4375 1.23048C3.78907 0.988293 4.14844 0.960949 4.48438 1.15626Z" fill="#8A8787"/>
</svg>
