<svg width="20" height="20" viewBox="0 0 20 20" fill="none" xmlns="http://www.w3.org/2000/svg">
<path d="M20 10C20 4.48618 15.5138 0 10 0C4.48618 0 0 4.48618 0 10C0 12.9124 1.25236 15.5375 3.24582 17.3665L3.23636 17.3749L3.56073 17.6484C3.58182 17.6662 3.60473 17.6807 3.62582 17.6982C3.79818 17.8411 3.97673 17.9767 4.15855 18.108C4.21745 18.1505 4.27636 18.1931 4.33636 18.2345C4.53055 18.3684 4.72982 18.4953 4.93345 18.6156C4.97782 18.6418 5.02255 18.6673 5.06727 18.6927C5.29018 18.8196 5.51782 18.9393 5.75091 19.0491C5.768 19.0571 5.78545 19.0644 5.80255 19.0724C6.56218 19.4255 7.37309 19.6847 8.22109 19.8378C8.24327 19.8418 8.26545 19.8458 8.288 19.8498C8.55127 19.8953 8.81746 19.9316 9.08691 19.956C9.11964 19.9589 9.15236 19.9607 9.18546 19.9636C9.45382 19.9858 9.72509 20 10 20C10.2724 20 10.5411 19.9858 10.808 19.9644C10.8418 19.9615 10.8756 19.9596 10.9095 19.9567C11.1767 19.9324 11.4407 19.8971 11.7015 19.8524C11.724 19.8484 11.7469 19.8444 11.7695 19.84C12.6047 19.6902 13.404 19.4367 14.1538 19.0927C14.1815 19.08 14.2095 19.068 14.2371 19.0549C14.4615 18.9495 14.6807 18.8356 14.8956 18.7145C14.9491 18.6844 15.0022 18.6538 15.0553 18.6225C15.2509 18.5073 15.4433 18.3869 15.6302 18.2589C15.6975 18.2131 15.7633 18.1647 15.8298 18.1167C15.9895 18.0018 16.1462 17.8833 16.2985 17.7593C16.3324 17.732 16.3687 17.7084 16.4018 17.6804L16.7345 17.4025L16.7247 17.3942C18.7356 15.5644 20 12.9273 20 10ZM0.727273 10C0.727273 4.88691 4.88691 0.727273 10 0.727273C15.1131 0.727273 19.2727 4.88691 19.2727 10C19.2727 12.7553 18.0636 15.2324 16.1495 16.932C16.0425 16.8582 15.9349 16.792 15.8247 16.7367L12.7458 15.1975C12.4695 15.0593 12.2978 14.7815 12.2978 14.4727V13.3975C12.3691 13.3095 12.4444 13.2098 12.5222 13.1004C12.9207 12.5375 13.2404 11.9113 13.4735 11.2375C13.9342 11.0185 14.2316 10.5596 14.2316 10.0415V8.75236C14.2316 8.43709 14.116 8.13127 13.9091 7.89091V6.19382C13.928 6.00509 13.9949 4.94 13.2244 4.06145C12.5542 3.29636 11.4695 2.90909 10 2.90909C8.53055 2.90909 7.44582 3.29636 6.77564 4.06109C6.00509 4.93964 6.072 6.00473 6.09091 6.19345V7.89055C5.88436 8.13091 5.76836 8.43673 5.76836 8.752V10.0411C5.76836 10.4415 5.948 10.8149 6.25564 11.0669C6.55018 12.2207 7.15636 13.0942 7.38036 13.3902V14.4425C7.38036 14.7393 7.21855 15.012 6.95782 15.1545L4.08255 16.7229C3.99091 16.7727 3.9 16.8309 3.80909 16.896C1.91855 15.1971 0.727273 12.7353 0.727273 10ZM15.4396 17.5025C15.3124 17.5949 15.1829 17.6844 15.0516 17.7698C14.9913 17.8091 14.9313 17.8484 14.8698 17.8865C14.6982 17.9927 14.5236 18.0938 14.3455 18.1884C14.3062 18.2091 14.2665 18.2287 14.2269 18.2491C13.8175 18.4589 13.3938 18.6393 12.9585 18.7858C12.9433 18.7909 12.928 18.7964 12.9124 18.8015C12.6844 18.8771 12.4535 18.9444 12.22 19.0022C12.2193 19.0022 12.2185 19.0025 12.2178 19.0025C11.9822 19.0607 11.7436 19.1091 11.5036 19.1487C11.4971 19.1498 11.4905 19.1513 11.484 19.1524C11.2582 19.1891 11.0305 19.2156 10.8022 19.2356C10.7618 19.2393 10.7215 19.2418 10.6807 19.2447C10.4549 19.2618 10.228 19.2727 10 19.2727C9.76945 19.2727 9.53964 19.2615 9.31091 19.2444C9.27127 19.2415 9.23164 19.2389 9.19236 19.2353C8.96182 19.2149 8.73236 19.1876 8.50509 19.1505C8.49491 19.1487 8.48473 19.1469 8.47455 19.1451C7.99382 19.0647 7.52073 18.9465 7.06 18.792C7.04582 18.7873 7.03127 18.7822 7.01709 18.7775C6.78836 18.6996 6.56218 18.6135 6.34 18.5182C6.33855 18.5175 6.33673 18.5167 6.33527 18.516C6.12509 18.4255 5.91891 18.3251 5.71527 18.2193C5.68873 18.2055 5.66182 18.1924 5.63564 18.1782C5.44982 18.0789 5.268 17.9716 5.08873 17.8596C5.03564 17.8262 4.98291 17.7924 4.93055 17.7582C4.76545 17.6502 4.60255 17.5378 4.444 17.4189C4.42764 17.4065 4.412 17.3935 4.39564 17.3811C4.40727 17.3745 4.41891 17.368 4.43055 17.3615L7.30582 15.7931C7.80036 15.5233 8.10764 15.0058 8.10764 14.4425L8.10727 13.1327L8.02364 13.0316C8.01564 13.0225 7.22945 12.0662 6.93236 10.7713L6.89927 10.6273L6.77527 10.5469C6.60036 10.4338 6.49564 10.2447 6.49564 10.0407V8.75164C6.49564 8.58255 6.56727 8.42509 6.69818 8.30691L6.81818 8.19855V6.17309L6.81491 6.12545C6.81382 6.11673 6.70655 5.24218 7.32255 4.54C7.84836 3.94073 8.74945 3.63636 10 3.63636C11.2458 3.63636 12.144 3.93818 12.6713 4.53309C13.2865 5.228 13.1858 6.11891 13.1851 6.12618L13.1818 8.19927L13.3018 8.30764C13.4324 8.42546 13.5044 8.58327 13.5044 8.75236V10.0415C13.5044 10.3007 13.328 10.536 13.0749 10.6142L12.8942 10.6698L12.836 10.8498C12.6215 11.5164 12.316 12.132 11.9284 12.6796C11.8331 12.8142 11.7404 12.9335 11.6607 13.0247L11.5705 13.1276V14.4727C11.5705 15.0589 11.8964 15.5862 12.4207 15.848L15.4996 17.3873C15.5193 17.3971 15.5385 17.4073 15.5578 17.4175C15.5189 17.4469 15.4789 17.4742 15.4396 17.5025Z" fill="#8A8787"/>
</svg>
