<svg width="20" height="20" viewBox="0 0 20 20" fill="none" xmlns="http://www.w3.org/2000/svg">
<path d="M9.45263 0.0135124C8.20822 0.173956 7.21033 0.643548 6.34942 1.47316C4.44366 3.30848 4.24017 6.28647 5.87591 8.38789C7.44513 10.4071 10.3175 10.9785 12.5245 9.70666C14.4733 8.58356 15.4791 6.39996 15.0643 4.20462C14.6768 2.17363 13.0411 0.522236 11.0062 0.103517C10.6188 0.0252522 9.76178 -0.0256202 9.45263 0.0135124Z" fill="#9A9A9A"/>
<path d="M5.77418 10.8297C4.0406 11.135 2.45182 12.2111 1.46176 13.749C1.25436 14.0738 1 14.6256 1 14.7548C1 15.013 1.74352 16.0618 2.44791 16.7936C4.16583 18.5819 6.28682 19.6463 8.72869 19.9516C9.23742 20.0181 10.654 20.0142 11.1549 19.9516C13.135 19.6972 14.896 18.9576 16.4183 17.7406C16.8918 17.3649 17.8192 16.4061 18.187 15.917C18.5979 15.3652 18.9227 14.8408 18.9227 14.7195C18.9227 14.6021 18.7036 14.1208 18.5118 13.8234C17.8427 12.7786 16.9113 11.9255 15.8665 11.405C15.1034 11.0254 14.1525 10.7632 13.6711 10.7984C13.5068 10.8102 13.3972 10.8493 13.2407 10.9471C12.6772 11.3033 12.4972 11.4011 12.1841 11.538C11.4054 11.8785 10.611 12.0272 9.76571 11.992C8.68565 11.9489 7.77777 11.6594 6.87381 11.0645C6.67814 10.9354 6.47074 10.8219 6.41204 10.8063C6.34943 10.7945 6.27508 10.7789 6.24377 10.771C6.21247 10.7632 6.00115 10.7906 5.77418 10.8297Z" fill="#9A9A9A"/>
</svg>
